<svg id="그룹_14369" data-name="그룹 14369" xmlns="http://www.w3.org/2000/svg" xmlns:xlink="http://www.w3.org/1999/xlink" width="198.063" height="221.939" viewBox="0 0 198.063 221.939">
  <defs>
    <clipPath id="clip-path">
      <rect id="사각형_15122" data-name="사각형 15122" width="198.063" height="221.939" fill="none"/>
    </clipPath>
  </defs>
  <g id="그룹_14368" data-name="그룹 14368" clip-path="url(#clip-path)">
    <g id="그룹_14367" data-name="그룹 14367">
      <g id="그룹_14366" data-name="그룹 14366" clip-path="url(#clip-path)">
        <path id="패스_21832" data-name="패스 21832" d="M162.265,177.024s-5.893,13.853,2.142,31.029,10.63,29.114,35.635,27.339,29.671-7.121,29.671-7.121,2.874-8.138-12.088-32.1c-5.909-9.462-14.406-25.171-23.2-29.266-13.467-6.28-27.41,2.79-32.164,10.115" transform="translate(-81.683 -84.04)" fill="#c67f47"/>
        <path id="패스_21833" data-name="패스 21833" d="M183.739,282.157s-14.326,11.356-11.05,23.9,26.271,8.853,36.368,2.768l-1.148-29.75Z" transform="translate(-87.812 -142.312)" fill="#c67f47"/>
        <path id="패스_21834" data-name="패스 21834" d="M209.553,322.179s.267-.122.784-.32c.254-.1.565-.23.918-.351l1.187-.419c.434-.162.915-.288,1.417-.453s1.031-.346,1.589-.485l1.721-.437a15.592,15.592,0,0,1,1.8-.344l1.811-.283c.6-.1,1.195-.117,1.764-.2l1.647-.192c.522-.075,1.021-.093,1.482-.114l3.066-.132a.81.81,0,0,1,.188,1.6l-.157.03s-.3.057-.814.124-1.257.148-2.146.184c-.445.022-.927.039-1.433.114l-1.6.173c-.554.064-1.129.11-1.7.224l-1.747.321a14.388,14.388,0,0,0-1.735.374l-1.656.463c-.27.07-.53.155-.785.239l-.752.221c-.488.148-.965.238-1.386.376s-.817.239-1.168.328-.637.193-.89.25c-.492.123-.789.219-.789.219l-.023.007a.818.818,0,0,1-.592-1.523" transform="translate(-106.615 -162.388)" fill="#894f28"/>
        <path id="패스_21835" data-name="패스 21835" d="M180.187,289.839l-.529.446c-.323.284-.8.7-1.37,1.287a25.631,25.631,0,0,0-4.063,5.366,21.946,21.946,0,0,0-1.808,4.09,16.887,16.887,0,0,0-.835,4.843,13.158,13.158,0,0,0,.887,5.085,11.816,11.816,0,0,0,2.9,4.347,12.211,12.211,0,0,0,4.6,2.6,19.585,19.585,0,0,0,5.232.863,37.2,37.2,0,0,0,9.544-1.1,56.1,56.1,0,0,0,6.567-2c1.555-.582,2.422-.967,2.422-.967a.818.818,0,0,1,.677,1.488l-.028.013-.637.3c-.417.19-1.027.472-1.825.782a48.282,48.282,0,0,1-6.755,2.158,38.109,38.109,0,0,1-10.021,1.132,22,22,0,0,1-5.725-.9,13.979,13.979,0,0,1-5.327-2.966,13.752,13.752,0,0,1-3.447-5.078,14.682,14.682,0,0,1-1.028-5.809,18.625,18.625,0,0,1,.945-5.4,23.846,23.846,0,0,1,2.043-4.41,26.7,26.7,0,0,1,2.334-3.348,23.09,23.09,0,0,1,2.131-2.308c.626-.6,1.162-1.042,1.527-1.341l.543-.428.014-.011a.817.817,0,0,1,1.033,1.267" transform="translate(-86.491 -147.064)" fill="#894f28"/>
        <path id="패스_21836" data-name="패스 21836" d="M223.334,287.667l-8.158,41.755s-6.255,5.492-4.51,11.962c2.473,9.148,22.68,8.143,31.124-5.732,0,0,12.93-33.942,11.882-54.861Z" transform="translate(-107.27 -143.186)" fill="#c67f47"/>
        <path id="패스_21837" data-name="패스 21837" d="M289.651,211.453a28.435,28.435,0,0,1-8.818-1.423,64.068,64.068,0,0,0-21.511-2.268c-.171.009-5.9.352-6.052.364l-9.134-22.148a74.624,74.624,0,0,1,15.111-1.778c17.737-.386,35.107,5.049,38.492,14.855a9.874,9.874,0,0,1-.334,8.129c-1.49,2.936-3.828,4.027-7.755,4.269" transform="translate(-124.495 -93.921)" fill="#c67f47"/>
        <path id="패스_21838" data-name="패스 21838" d="M114.356,206.69s-53.405-10.14-55.11-26.372c0,0-1.68-8.465,8.812-10.517,10.457-2.044,31.894,8.661,43.292,13.114Z" transform="translate(-30.161 -86.457)" fill="#c67f47"/>
        <path id="패스_21839" data-name="패스 21839" d="M108.674,204.922l-1.272-.234c-.83-.155-2.046-.387-3.591-.7-3.087-.631-7.49-1.582-12.713-3-2.611-.708-5.426-1.534-8.371-2.52s-6.023-2.133-9.131-3.53a50.5,50.5,0,0,1-9.192-5.2,23.957,23.957,0,0,1-4.066-3.778,13.427,13.427,0,0,1-2.739-5.053c-.055-.24-.125-.476-.167-.72l-.118-.7a9.083,9.083,0,0,1-.076-1.5,10.189,10.189,0,0,1,.5-2.9,9.436,9.436,0,0,1,3.428-4.668,13.783,13.783,0,0,1,5.109-2.2l.691-.149.639-.1c.42-.066.923-.1,1.368-.134a21.779,21.779,0,0,1,2.645.035A47.139,47.139,0,0,1,81.3,169.79c2.992.873,5.759,1.855,8.292,2.8,5.059,1.914,9.187,3.694,12.08,4.919l4.538,1.931a.818.818,0,0,1-.635,1.507l-4.56-1.893c-2.9-1.19-7.02-2.956-12.038-4.824-2.51-.928-5.246-1.884-8.176-2.725-1.464-.419-2.978-.811-4.533-1.133a35.114,35.114,0,0,0-4.766-.7,19.935,19.935,0,0,0-2.425-.034c-.4.032-.75.047-1.18.113l-.638.1-.569.124a12.017,12.017,0,0,0-4.448,1.887,7.389,7.389,0,0,0-2.761,3.767,8.349,8.349,0,0,0-.382,2.377,7.22,7.22,0,0,0,.07,1.184l.107.626c.034.2.095.395.14.592a11.548,11.548,0,0,0,2.382,4.324,22.057,22.057,0,0,0,3.759,3.459,48.687,48.687,0,0,0,8.852,4.967c3.031,1.356,6.052,2.485,8.952,3.455s5.668,1.826,8.244,2.55,4.954,1.339,7.07,1.851,3.97.916,5.5,1.267c3.053.684,4.808,1.026,4.808,1.026h0a.818.818,0,0,1-.3,1.607" transform="translate(-29.187 -85.573)" fill="#894f28"/>
        <path id="패스_21840" data-name="패스 21840" d="M54.875,127.75c-7.267,1.942-8.01,8.288-8.2,10.091-1.708-.614-7.235-3.973-12.154,1.721-5.887,6.809,2.89,21.685,24.577,18.175,12.625-17.975,4.471-32.307-4.223-29.987" transform="translate(-16.693 -65.019)" fill="#e92d17"/>
        <path id="패스_21841" data-name="패스 21841" d="M53.923,127.861c-.278.057-.607.1-.844.167a7.646,7.646,0,0,0-.766.218c-.257.084-.507.184-.752.292a7.131,7.131,0,0,0-.714.364,6.924,6.924,0,0,0-.668.437,7.433,7.433,0,0,0-.618.5c-.2.18-.383.371-.562.57s-.345.409-.5.628a10.309,10.309,0,0,0-1.437,2.93,13.731,13.731,0,0,0-.406,1.62c-.106.552-.178,1.1-.235,1.68a.834.834,0,0,1-1.267.628l-.014-.009a10.253,10.253,0,0,0-5.718-1.722,6.417,6.417,0,0,0-2.775.756,7.929,7.929,0,0,0-2.268,1.878,9.221,9.221,0,0,0-.892,1.211,6.96,6.96,0,0,0-.611,1.307,7.566,7.566,0,0,0-.391,2.893,10.293,10.293,0,0,0,2.148,5.546,15.416,15.416,0,0,0,4.65,4.017,21.192,21.192,0,0,0,5.855,2.257,33.984,33.984,0,0,0,12.738.2l-.563.352a39.976,39.976,0,0,0,4.49-8.066,24.843,24.843,0,0,0,1.942-8.878,16.275,16.275,0,0,0-.527-4.45,11.841,11.841,0,0,0-1.871-3.975,8.608,8.608,0,0,0-3.282-2.742,7.317,7.317,0,0,0-2.035-.61,7.492,7.492,0,0,0-2.127,0Zm-.268-1.543.016,0a9.058,9.058,0,0,1,2.582-.027,8.934,8.934,0,0,1,2.488.714,9.774,9.774,0,0,1,2.187,1.363,10.878,10.878,0,0,1,1.771,1.846,12.921,12.921,0,0,1,2.191,4.528,18.009,18.009,0,0,1,.585,4.926,26.558,26.558,0,0,1-2.071,9.5,42.816,42.816,0,0,1-4.674,8.419.882.882,0,0,1-.58.363,35.734,35.734,0,0,1-13.41-.16,23.016,23.016,0,0,1-6.37-2.423,17.193,17.193,0,0,1-5.228-4.5,12.116,12.116,0,0,1-2.529-6.557A9.45,9.45,0,0,1,31.1,140.7a8.8,8.8,0,0,1,.789-1.68,11.061,11.061,0,0,1,1.064-1.444,9.782,9.782,0,0,1,2.808-2.309,8.081,8.081,0,0,1,3.576-.938,10.285,10.285,0,0,1,3.567.549,14,14,0,0,1,3.167,1.529l-1.4.678c.067-.6.156-1.219.281-1.826a15.327,15.327,0,0,1,.48-1.812,11.967,11.967,0,0,1,1.722-3.387c.191-.26.4-.506.614-.748s.449-.467.691-.683a8.9,8.9,0,0,1,.763-.606,8.519,8.519,0,0,1,.82-.522,9.048,9.048,0,0,1,.869-.429,9.52,9.52,0,0,1,.9-.337,9.246,9.246,0,0,1,.939-.252c.334-.084.593-.107.894-.164Z" transform="translate(-15.603 -64.358)" fill="#b32312"/>
        <path id="패스_21842" data-name="패스 21842" d="M46.783,151.34c.341,1.11-.844,2.461-2.642,3.013s-3.536.094-3.879-1.022.847-2.463,2.646-3.013,3.533-.094,3.875,1.022" transform="translate(-20.502 -76.534)" fill="#fff"/>
        <path id="패스_21843" data-name="패스 21843" d="M91.87,176.083s-5.955-3.483-7.668.179,1.831,6.18,5.283,7.147" transform="translate(-42.711 -89.028)" fill="#c67f47"/>
        <path id="패스_21844" data-name="패스 21844" d="M90.515,175.71l-.167-.087c-.113-.057-.284-.142-.506-.242a12.6,12.6,0,0,0-1.876-.683,5.2,5.2,0,0,0-2.524-.158,1.763,1.763,0,0,0-.942.545,1.251,1.251,0,0,0-.169.226,2.133,2.133,0,0,0-.16.256l-.01.017-.005.008,0,0c.012-.027-.029.067.025-.06l-.021.051-.042.1-.084.2-.084.2-.042.1-.016.074a3.386,3.386,0,0,0-.111,1.259,3.1,3.1,0,0,0,.49,1.216,5.071,5.071,0,0,0,.928.985,7.057,7.057,0,0,0,1.053.731c.17.109.347.192.513.277a5.2,5.2,0,0,0,.477.23c.3.144.578.243.8.329s.409.137.531.18l.189.061a.818.818,0,0,1-.414,1.58l-.027-.006-.222-.044c-.143-.035-.361-.061-.625-.143a7.8,7.8,0,0,1-.947-.32,7.33,7.33,0,0,1-1.18-.57,8.951,8.951,0,0,1-1.306-.9,6.949,6.949,0,0,1-1.25-1.354,5.481,5.481,0,0,1-.82-1.916,4.971,4.971,0,0,1,.134-2.209l.036-.139.04-.1.08-.206.079-.205.04-.1.021-.052.029-.068,0-.007.008-.016.017-.031a3.968,3.968,0,0,1,.282-.49,3.064,3.064,0,0,1,.345-.467,3.726,3.726,0,0,1,1.939-1.159,5.17,5.17,0,0,1,1.926-.1,8.477,8.477,0,0,1,1.556.365,8.955,8.955,0,0,1,1.211.482,9.335,9.335,0,0,1,.879.46c.237.141.418.258.543.341l.2.132.016.012a.818.818,0,0,1-.836,1.4" transform="translate(-41.766 -87.948)" fill="#894f28"/>
        <path id="패스_21845" data-name="패스 21845" d="M163.094,232.235s.021.121.061.346.1.557.187.949.207.9.351,1.466.323,1.21.525,1.907c.407,1.4.92,3.018,1.517,4.74s1.282,3.55,2.021,5.309c.4.882.8,1.765,1.188,2.634l.587,1.275.607,1.233c.4.81.818,1.576,1.243,2.285s.833,1.376,1.244,1.969l.576.861.547.758c.338.48.64.894.9,1.226l.809,1.053a.817.817,0,0,1-1.245,1.057l-.024-.025-.244-.263c-.163-.167-.39-.423-.668-.759s-.618-.741-.991-1.222-.761-1.046-1.172-1.673c-.431-.614-.84-1.315-1.284-2.049-.23-.363-.424-.759-.652-1.147s-.456-.788-.666-1.206l-.659-1.26-.636-1.316c-.224-.443-.4-.89-.625-1.327s-.431-.854-.639-1.346c-.4-.923-.773-1.843-1.122-2.754s-.66-1.817-.959-2.693-.548-1.738-.792-2.552-.465-1.588-.644-2.31-.341-1.386-.471-1.98-.225-1.111-.3-1.56-.123-.789-.147-1.013l-.044-.35,0-.023a.818.818,0,0,1,1.617-.242" transform="translate(-82.34 -118.081)" fill="#894f28"/>
        <path id="패스_21846" data-name="패스 21846" d="M286.89,262.168s.01-.032.027-.094l.049-.222a8.181,8.181,0,0,0,.137-.965,14.557,14.557,0,0,0,.058-1.579c-.014-.309-.028-.638-.043-.985s-.076-.713-.114-1.094c-.023-.19-.045-.385-.068-.583s-.073-.4-.109-.6c-.079-.409-.137-.834-.241-1.265-.227-.86-.417-1.775-.74-2.7q-.219-.695-.444-1.411l-.537-1.424c-.346-.962-.755-1.924-1.16-2.886-.379-.973-.872-1.9-1.305-2.837s-.914-1.833-1.4-2.689-.931-1.7-1.427-2.457l-1.351-2.163c-.405-.678-.84-1.26-1.195-1.8l-.938-1.375-.817-1.2a.818.818,0,0,1,1.317-.969l.005.008.238.3c.153.2.39.483.662.864l1,1.365a21.128,21.128,0,0,1,1.248,1.807l1.381,2.2c.5.774.956,1.639,1.448,2.52s1.014,1.782,1.468,2.743.984,1.9,1.39,2.9c.432.99.866,1.978,1.243,2.979q.293.745.579,1.478c.17.5.328.992.482,1.479.332.966.535,1.943.768,2.855.113.458.157.92.231,1.359q.05.33.1.649c.02.215.038.427.057.634.031.415.079.81.089,1.191V259.3a13.633,13.633,0,0,1-.154,1.776,9.751,9.751,0,0,1-.243,1.163l-.1.328c-.022.06-.033.092-.033.092l-.006.015a.818.818,0,0,1-1.553-.508" transform="translate(-140.299 -117.575)" fill="#894f28"/>
        <path id="패스_21847" data-name="패스 21847" d="M202.376,192.358s-5.947,10.323-19.959,14.592-22.692,2.99-32.514-4.85Z" transform="translate(-76.441 -98.091)" fill="#a26a3b"/>
        <path id="패스_21848" data-name="패스 21848" d="M261.3,182.827l1.169-.091,1.4-.111c.556-.037,1.206-.057,1.928-.092,1.446-.078,3.193-.112,5.206-.073s4.275.154,6.738.407a72.152,72.152,0,0,1,7.9,1.244,53.716,53.716,0,0,1,8.588,2.585,29.942,29.942,0,0,1,8.392,4.892,16.256,16.256,0,0,1,3.314,3.933,12.2,12.2,0,0,1,1.093,2.42c.06.2.123.377.181.6s.12.441.168.657a12.75,12.75,0,0,1,.223,1.308,9.455,9.455,0,0,1-.838,5.282A8.294,8.294,0,0,1,303,209.551a14.256,14.256,0,0,1-4.874,1.394c-.418.053-.8.078-1.243.1-.4.009-.766.038-1.191.024s-.825-.01-1.221-.041-.8-.057-1.191-.1a26.327,26.327,0,0,1-4.561-.924c-.685-.188-1.409-.411-2.085-.576s-1.351-.339-2.03-.476a60.093,60.093,0,0,0-7.7-1.131c-2.408-.208-4.627-.253-6.591-.232-.982.017-1.9.044-2.748.095-.82.068-1.631.166-2.334.236l-4.472.473a.817.817,0,1,1-.172-1.625l.059-.006,4.451-.479,2.37-.247c.87-.07,1.811-.124,2.818-.157,2.013-.045,4.288-.026,6.763.158a56.023,56.023,0,0,1,7.938,1.146c.7.142,1.4.32,2.122.5s1.389.386,2.125.589a24.442,24.442,0,0,0,4.246.864c.365.041.732.078,1.1.094s.734.036,1.094.039.761-.014,1.146-.023c.338-.02.736-.044,1.1-.092a12.105,12.105,0,0,0,4.242-1.212,6.457,6.457,0,0,0,2.957-2.963,7.617,7.617,0,0,0,.639-4.257,10.934,10.934,0,0,0-.194-1.106c-.04-.183-.092-.354-.136-.531s-.12-.383-.178-.573a10.413,10.413,0,0,0-.929-2.027,14.384,14.384,0,0,0-2.943-3.452A28.1,28.1,0,0,0,293.5,188.5a52.4,52.4,0,0,0-8.276-2.482c-2.7-.57-5.28-1-7.681-1.272s-4.615-.417-6.579-.479-3.68-.038-5.085,0c-.7.018-1.329.021-1.881.045s-1.025.057-1.406.078l-1.172.066h-.011a.818.818,0,0,1-.109-1.632" transform="translate(-132.506 -93.035)" fill="#894f28"/>
        <path id="패스_21849" data-name="패스 21849" d="M221.527,304.643l-6.322,33.471a.927.927,0,0,1-.281.508l-.022.021a16.175,16.175,0,0,0-1.974,2.243,14.76,14.76,0,0,0-1.528,2.577,10.416,10.416,0,0,0-.858,2.789,8.243,8.243,0,0,0,.047,2.842,5.829,5.829,0,0,0,1.093,2.49,6.99,6.99,0,0,0,2.121,1.79,12.952,12.952,0,0,0,5.682,1.48,21.16,21.16,0,0,0,6.055-.626,24.506,24.506,0,0,0,5.726-2.207,23.918,23.918,0,0,0,4.991-3.57,22.937,22.937,0,0,0,3.884-4.742l-.074.153c.7-1.91,1.375-3.851,2.029-5.79s1.294-3.887,1.914-5.839l.916-2.933q.459-1.466.889-2.94c.289-.983.59-1.961.863-2.948l.836-2.956.794-2.966c.272-.987.509-1.982.76-2.974s.5-1.983.727-2.981l.69-2.988.624-3c.219-1,.392-2,.573-3.009s.381-2.007.514-3.017l.445-3.025,0-.02a.818.818,0,0,1,1.62.224l-.4,3.077c-.116,1.03-.316,2.043-.485,3.062s-.342,2.039-.554,3.049l-.605,3.037-.671,3.021c-.216,1.01-.467,2.009-.718,3.009s-.492,2-.766,3l-.8,2.986-.842,2.973c-.275.993-.578,1.977-.868,2.965s-.589,1.974-.9,2.956l-.922,2.948q-.937,2.944-1.927,5.87c-.658,1.953-1.337,3.891-2.045,5.839a.867.867,0,0,1-.073.152l0,.008a24.709,24.709,0,0,1-4.173,5.136,25.716,25.716,0,0,1-5.359,3.866,26.369,26.369,0,0,1-6.154,2.4,23.05,23.05,0,0,1-6.6.7,14.793,14.793,0,0,1-6.543-1.706,8.886,8.886,0,0,1-2.708-2.292,7.784,7.784,0,0,1-1.459-3.288,10.194,10.194,0,0,1-.066-3.512,12.366,12.366,0,0,1,1.006-3.306,16.5,16.5,0,0,1,1.726-2.919q.5-.681,1.055-1.314a15.647,15.647,0,0,1,1.2-1.238l-.327.57,1.581-8.368,1.666-8.351,1.666-8.351c.546-2.786,1.151-5.56,1.723-8.341v-.007a.817.817,0,0,1,1.6.317" transform="translate(-106.323 -150.827)" fill="#894f28"/>
        <path id="패스_21850" data-name="패스 21850" d="M223.775,240.963c4.386,8.977,2.3,19.005-4.651,22.4s-16.144-1.126-20.53-10.1-2.3-19,4.65-22.4,16.143,1.125,20.53,10.1" transform="translate(-100.1 -117.15)" fill="#f9e3c5"/>
        <path id="패스_21851" data-name="패스 21851" d="M194.4,92.434c5.047,21.2-7.97,39.732-32.435,45.559-23.976,5.709-44.441-4.851-49.49-26.048s9.4-41.888,32.026-47.277,44.848,6.569,49.9,27.765" transform="translate(-56.843 -32.321)" fill="#c67f47"/>
        <path id="패스_21852" data-name="패스 21852" d="M234.843,86.951a14.462,14.462,0,0,1-2.188,2.492A36.228,36.228,0,0,1,241,105.372c4.917,20.65-7.314,38.77-30.562,45.076.616-.124,1.233-.252,1.852-.4,24.466-5.825,37.483-24.362,32.432-45.559a36.236,36.236,0,0,0-9.883-17.535" transform="translate(-107.312 -44.34)" fill="#dd9d6e"/>
        <path id="패스_21853" data-name="패스 21853" d="M210.578,52.032a14.119,14.119,0,0,1,6.133-8.637,15.035,15.035,0,0,1,6.448-2.238,15.945,15.945,0,0,1,9.234,1.773,14.772,14.772,0,0,1,7.634,10.222,14.322,14.322,0,0,1-1.471,10.092,11.71,11.71,0,0,1-1.723,2.4" transform="translate(-107.382 -20.939)" fill="#c67f47"/>
        <path id="패스_21854" data-name="패스 21854" d="M245.8,43.013a15.985,15.985,0,0,0-8.649-1.817,16.024,16.024,0,0,1,5.292,1.706,14.772,14.772,0,0,1,7.636,10.224,14.316,14.316,0,0,1-1.472,10.089,12.964,12.964,0,0,1-.787,1.257l2.419,1.256a11.527,11.527,0,0,0,1.724-2.4,14.328,14.328,0,0,0,1.473-10.093,14.774,14.774,0,0,0-7.635-10.22" transform="translate(-120.934 -20.986)" fill="#dd9d6e"/>
        <path id="패스_21855" data-name="패스 21855" d="M225.767,62.265a6.516,6.516,0,0,1,3.387-3.432,7.783,7.783,0,0,1,7.636,1.058,7.023,7.023,0,0,1,2.814,5.361,7.252,7.252,0,0,1-.85,3.829,46.18,46.18,0,0,0-13.081-6.565,2.53,2.53,0,0,1,.094-.25" transform="translate(-115.079 -29.713)" fill="#4d2d08"/>
        <path id="패스_21856" data-name="패스 21856" d="M208.934,50.835s.011-.051.034-.151.061-.255.118-.467a14.685,14.685,0,0,1,.59-1.716,15,15,0,0,1,3.656-5.276,9.7,9.7,0,0,1,.776-.672l.412-.331.441-.308.223-.156.112-.078.057-.039.014-.01.06-.037.028-.016.454-.258.929-.53c.345-.165.725-.319,1.1-.479a7.515,7.515,0,0,1,1.14-.424l1.172-.345c.4-.1.812-.153,1.223-.233l.622-.107.078-.013.02,0a.3.3,0,0,1,.054-.006l.037,0,.149-.012.3-.023.6-.047c.2-.017.435-.008.652-.012h.667c.222,0,.435.027.653.041l.654.048.652.094a16.306,16.306,0,0,1,5.046,1.635l.3.148.037.018.082.048.067.042.134.082.538.331a8.6,8.6,0,0,1,1.081.728c.36.283.731.558,1.073.85l.948.925.235.231.21.253.416.506.412.5c.137.168.242.358.363.536.232.363.474.716.69,1.081l.576,1.126a15.326,15.326,0,0,1,1.343,4.6c.045.362.106.7.138,1.067q.017.571.034,1.123a15.353,15.353,0,0,1-.1,2.092,14.794,14.794,0,0,1-.881,3.535,12.476,12.476,0,0,1-.627,1.4c-.121.215-.216.4-.346.613l-.311.491c-.205.312-.355.587-.544.832l-.51.624-.429.516a.813.813,0,0,1-1.278-1l.086-.116.323-.432.39-.51c.15-.21.314-.519.507-.826l.3-.5.266-.5a10.752,10.752,0,0,0,.515-1.224,15.306,15.306,0,0,0,.739-3.116,13.7,13.7,0,0,0,.087-1.821q-.01-.463-.021-.941c-.028-.335-.092-.7-.137-1.053a13.518,13.518,0,0,0-1.172-4.077l-.5-1c-.189-.323-.413-.63-.618-.95-.109-.155-.2-.324-.324-.471l-.37-.441L235,45.78l-.186-.223-.211-.2-.845-.809c-.295-.244-.6-.463-.9-.7a7.332,7.332,0,0,0-1.012-.671l-.54-.326-.135-.082-.067-.041-.017-.01c.015.008-.057-.033.029.016l-.033-.016-.268-.129a14.385,14.385,0,0,0-4.493-1.415l-.578-.078-.579-.036a9.621,9.621,0,0,0-1.128-.024c-.189.006-.359-.006-.561.012l-.6.052-.3.025-.149.013-.037,0c.065-.006.008,0,.018,0l-.017,0-.068.013-.548.1c-.362.071-.727.113-1.077.2l-1.03.3a5.848,5.848,0,0,0-.96.355c-.307.133-.606.244-.911.385-.314.178-.622.358-.934.521l-.461.247-.349.232-.392.26-.366.281a8.3,8.3,0,0,0-.691.57,12.991,12.991,0,0,0-2.113,2.4,15.534,15.534,0,0,0-1.217,2.164,13.23,13.23,0,0,0-.585,1.487c-.052.167-.093.3-.12.4s-.041.149-.041.149l-.006.021a.817.817,0,0,1-1.585-.4" transform="translate(-106.533 -19.93)" fill="#894f28"/>
        <path id="패스_21857" data-name="패스 21857" d="M123.567,73.07a14.112,14.112,0,0,0-9.139-5.356,15.041,15.041,0,0,0-6.8.6,15.952,15.952,0,0,0-7.693,5.41,14.77,14.77,0,0,0-2.765,12.454,14.309,14.309,0,0,0,5.488,8.6,11.46,11.46,0,0,0,2.557,1.486" transform="translate(-49.356 -34.454)" fill="#c67f47"/>
        <path id="패스_21858" data-name="패스 21858" d="M107.234,71.049a15.051,15.051,0,0,1,6.8-.607,14.125,14.125,0,0,1,8.9,5.06l1.872-2.363a14.128,14.128,0,0,0-9.139-5.358,15.075,15.075,0,0,0-6.8.607,15.966,15.966,0,0,0-7.692,5.409,15.115,15.115,0,0,0-1.68,2.721c.017-.019.025-.039.044-.06a15.925,15.925,0,0,1,7.693-5.409" transform="translate(-50.737 -34.488)" fill="#dd9d6e"/>
        <path id="패스_21859" data-name="패스 21859" d="M126.328,85.981a6.513,6.513,0,0,0-4.5-1.742,7.792,7.792,0,0,0-6.532,4.1,7.041,7.041,0,0,0-.363,6.044,7.268,7.268,0,0,0,2.349,3.137,46.292,46.292,0,0,1,9.23-11.356c-.111-.12-.186-.184-.186-.184" transform="translate(-58.347 -42.956)" fill="#4d2d08"/>
        <path id="패스_21860" data-name="패스 21860" d="M121.97,72.5l-.1-.122c-.065-.086-.153-.19-.265-.324a13.112,13.112,0,0,0-1.116-1.149,13.305,13.305,0,0,0-4.915-2.854,8.163,8.163,0,0,0-.87-.245l-.452-.111-.468-.08-.425-.073-.521-.041-1.067-.081c-.339,0-.663.03-1,.042a5.958,5.958,0,0,0-1.028.091l-1.066.167c-.356.071-.705.189-1.063.28l-.537.147-.067.018-.018,0c-.035.012.03-.011.017-.006l-.035.013-.14.052-.281.1-.565.21c-.19.07-.339.154-.511.23l-.5.232c-.168.08-.335.183-.5.274l-.506.28-.487.317A15.93,15.93,0,0,0,99.97,73l-.193.225-.024.028c.059-.081.01-.013.02-.027l-.011.016-.046.065-.091.129-.363.516a7.355,7.355,0,0,0-.655,1.019c-.179.335-.373.658-.545,1l-.451,1.079-.114.269-.082.279-.163.555-.163.553c-.054.184-.071.376-.108.563-.06.376-.145.747-.187,1.121q-.03.564-.06,1.119a13.57,13.57,0,0,0,.571,4.224c.1.343.193.7.3,1.017l.368.877a13.859,13.859,0,0,0,.828,1.642,13.574,13.574,0,0,0,1.978,2.548,10.6,10.6,0,0,0,.989.9l.459.345.482.326c.3.2.58.41.811.53l.578.285.479.243.083.042a.815.815,0,0,1-.7,1.47l-.614-.276-.738-.341c-.283-.138-.531-.324-.849-.521l-.488-.315c-.206-.139-.374-.268-.575-.412a12.428,12.428,0,0,1-1.166-1.011c-.192-.2-.408-.383-.6-.6l-.586-.681a8.376,8.376,0,0,1-.554-.764c-.175-.27-.382-.529-.543-.825s-.326-.6-.493-.9a6.919,6.919,0,0,1-.459-.98l-.43-1.048c-.12-.346-.2-.682-.309-1.031a15.372,15.372,0,0,1-.63-4.771q.036-.628.073-1.266c.049-.422.131-.844.2-1.27.04-.212.06-.429.117-.638l.176-.628.177-.631.09-.317.123-.306.5-1.227c.2-.4.426-.8.642-1.207a8.58,8.58,0,0,1,.7-1.1l.359-.518.09-.13.044-.065.053-.074.027-.032.214-.255a17.859,17.859,0,0,1,3.922-3.549l.548-.362.569-.322c.192-.105.374-.218.572-.315l.6-.283c.2-.089.407-.2.6-.269l.563-.216.28-.107.14-.053.035-.013.052-.018.019-.005.076-.022.61-.169c.407-.1.8-.233,1.209-.312l1.213-.187a7.541,7.541,0,0,1,1.22-.1c.407-.012.822-.035,1.208-.032.36.028.716.052,1.065.091l.52.052.032,0,.077.01.017,0,.068.014.136.025.27.053.532.1.515.136a10.063,10.063,0,0,1,.989.3,14.957,14.957,0,0,1,3.3,1.612,13.672,13.672,0,0,1,2.2,1.761,14.9,14.9,0,0,1,1.213,1.356c.135.173.236.306.29.385l.09.126.012.016a.817.817,0,0,1-1.308.98" transform="translate(-48.408 -33.386)" fill="#894f28"/>
        <path id="패스_21861" data-name="패스 21861" d="M167.091,154.3a4.961,4.961,0,1,1,5.961,3.7,4.958,4.958,0,0,1-5.961-3.7" transform="translate(-85.138 -75.575)" fill="#fff2e1"/>
        <path id="패스_21862" data-name="패스 21862" d="M179.913,153.5a3.5,3.5,0,1,1-4.282-3.144c1.851-.436,3.77.97,4.282,3.144" transform="translate(-88.252 -76.631)" fill="#1a1818"/>
        <path id="패스_21863" data-name="패스 21863" d="M212.754,143.574a4.961,4.961,0,1,1,5.964,3.7,4.961,4.961,0,0,1-5.964-3.7" transform="translate(-108.424 -70.107)" fill="#fff2e1"/>
        <path id="패스_21864" data-name="패스 21864" d="M219.947,144.495a3.495,3.495,0,1,1-4.285-3.141,3.783,3.783,0,0,1,4.285,3.141" transform="translate(-108.668 -72.042)" fill="#1a1818"/>
        <path id="패스_21865" data-name="패스 21865" d="M205.833,167.636c1.305,5.571-3.453,11.455-10.643,13.14s-14.067-1.461-15.373-7.029,3.456-11.45,10.637-13.134,14.075,1.456,15.379,7.024" transform="translate(-91.585 -81.67)" fill="#f9e3c5"/>
        <path id="패스_21866" data-name="패스 21866" d="M204.275,170.721c-.051-.265-.251-.439-.417-.365l-1.37.552c-.093.007-.162.1-.2.214a.7.7,0,0,0-.015.4l2.017,7.1c.133.565.515.944.9.914a.283.283,0,0,0,.152-.025h.017l.071-.022c.551-.132.606-.788.438-1.488Z" transform="translate(-103.137 -86.863)" fill="#1a1818"/>
        <path id="패스_21867" data-name="패스 21867" d="M198.515,157.342a23.858,23.858,0,0,0-3.251.471l-.288.066a24.55,24.55,0,0,0-3.124,1.023c-3.108,1.268-2.443,3.151-2.443,3.151a4.506,4.506,0,0,0,.946,1.763c.885.913,3.473,2.927,6.354,2.481v0c.12-.019.235-.034.355-.064l.024,0,.021,0c.119-.027.232-.068.349-.1l0,0c2.783-.882,4.2-3.841,4.586-5.053a4.441,4.441,0,0,0,.067-2s-.245-1.976-3.593-1.727" transform="translate(-96.556 -80.224)" fill="#1a1818"/>
        <path id="패스_21868" data-name="패스 21868" d="M185.829,88.793l.307.35c.2.228.5.57.893,1.052a36.928,36.928,0,0,1,6.451,11.724c.25.749.486,1.53.7,2.343q.079.3.158.614l.04.155.039.174.066.308q.133.619.27,1.254a39.147,39.147,0,0,1,.691,5.546,35.1,35.1,0,0,1-1.531,12.433,34.733,34.733,0,0,1-6.8,12.215,42.409,42.409,0,0,1-11.589,9.389c-.562.3-1.115.619-1.686.9l-1.723.844-1.765.763c-.591.25-1.2.466-1.794.7a62.464,62.464,0,0,1-7.4,2.222l-1.858.4c-.626.127-1.275.228-1.911.343s-1.276.19-1.914.28l-.956.125-.96.089a51.379,51.379,0,0,1-7.664.167,42.777,42.777,0,0,1-14.509-3.346,35.673,35.673,0,0,1-11.5-7.9,35.056,35.056,0,0,1-4.038-5.092,34,34,0,0,1-2.871-5.344c-.412-.883-.71-1.788-1.046-2.655-.271-.888-.588-1.743-.793-2.6l-.333-1.266q-.138-.626-.271-1.234-.116-.626-.229-1.233-.092-.6-.181-1.189a36.927,36.927,0,0,1,.622-13.361c.133-.592.255-1.042.338-1.344s.123-.46.123-.46a.818.818,0,0,1,1.582.412l-.009.034-.112.441c-.075.291-.186.722-.3,1.29a38.3,38.3,0,0,0-.728,4.968,35.676,35.676,0,0,0,.249,7.778l.181,1.132q.108.565.221,1.146l.273,1.2q.161.6.327,1.208c.2.824.5,1.637.756,2.486.321.826.6,1.69,1,2.528a32.174,32.174,0,0,0,2.724,5.077,33.273,33.273,0,0,0,3.823,4.827,33.857,33.857,0,0,0,10.918,7.5,40.423,40.423,0,0,0,13.893,3.169,49.6,49.6,0,0,0,7.386-.185l.926-.089.924-.124c.615-.089,1.237-.155,1.842-.275s1.213-.206,1.829-.333l1.857-.4a52.968,52.968,0,0,0,13.834-5.278,40.565,40.565,0,0,0,11.042-8.975,32.78,32.78,0,0,0,6.419-11.536,33.732,33.732,0,0,0,1.518-11.749c-.028-.462-.039-.919-.081-1.37l-.14-1.337c-.035-.445-.122-.865-.182-1.29s-.114-.833-.21-1.26l-.261-1.256-.064-.309-.028-.129-.037-.148q-.073-.295-.146-.586c-.2-.775-.415-1.521-.648-2.236a36.661,36.661,0,0,0-3.19-7.1,35.169,35.169,0,0,0-2.833-4.14c-.35-.446-.644-.794-.847-1.027l-.3-.354,0,0a.818.818,0,0,1,1.237-1.07" transform="translate(-55.98 -45.137)" fill="#894f28"/>
        <path id="패스_21869" data-name="패스 21869" d="M148.957,68.962l1.157-.688,1.328-.789c.26-.149.522-.321.824-.478l.973-.476,2.194-1.07c.786-.355,1.636-.657,2.505-1.009l1.332-.512c.46-.145.93-.275,1.4-.415s.949-.274,1.43-.4.945-.276,1.464-.366L165,62.472c.479-.094.986-.157,1.472-.235.982-.171,1.941-.229,2.869-.358.933-.065,1.831-.172,2.689-.187l1.248-.044c.4-.011.793,0,1.167,0l1.073.012.967.054c.607.03,1.135.063,1.569.114l1.364.137a.816.816,0,0,1-.1,1.627l-.085,0-.346-.009c-.225-.008-.557-.005-.975-.038s-.929-.046-1.513-.053-1.242-.025-1.961-.027c-.359,0-.734-.011-1.121,0l-1.2.045c-.824.01-1.689.108-2.587.164-.89.109-1.824.2-2.739.374-.463.084-.921.146-1.4.248l-1.433.309c-.448.081-.92.247-1.377.367s-.918.262-1.368.4-.9.271-1.339.417l-1.27.511-1.227.492c-.4.161-.81.284-1.173.465-.733.349-1.439.653-2.086.947l-.932.415c-.3.137-.577.3-.841.435-.528.278-.985.527-1.371.715l-1.205.6-.032.016a.817.817,0,0,1-.784-1.433" transform="translate(-75.755 -31.435)" fill="#894f28"/>
        <path id="패스_21870" data-name="패스 21870" d="M175.162,107.2c-.027-.043-.048-.087-.071-.124-.5-.909-.927-1.4-1.466-2.279-.345-.565-2.334-3.828-3.049-1.83-.172.469.075.778.392,1.118a15.525,15.525,0,0,1,.939,1.337c.167.218.32.448.468.681.562.878.98,1.4,1.557,2.262.319.468,1.5,1.049,1.7.213.1-.4-.252-.991-.473-1.378" transform="translate(-86.954 -52.178)" fill="#4d2d08"/>
        <path id="패스_21871" data-name="패스 21871" d="M188.186,107.157c-.27-1.483-.843-2.9-1.078-4.394-.109-.68-.349-2.753-1.467-2.452-.509.137-.528.618-.573,1.061a1.882,1.882,0,0,0-.017.4c.026.389.289.7.351,1.077a6.876,6.876,0,0,0,.12,1.223c.315.93.567,1.88.9,2.82.2.557.515,1.72,1.332,1.561.422-.081.572-.538.435-1.3" transform="translate(-94.362 -51.137)" fill="#4d2d08"/>
        <path id="패스_21872" data-name="패스 21872" d="M196.768,102.7c.694-.2.6-1.446.683-2.021a15.642,15.642,0,0,0,.242-2.627c-.024-.789.413-1.9-.687-2.123a.75.75,0,0,0-.111-.019c-1.245-.078-1.265,3.108-1.317,4.007-.045.771-.308,2.557.756,2.786a.879.879,0,0,0,.434,0" transform="translate(-99.701 -48.908)" fill="#4d2d08"/>
        <path id="패스_21873" data-name="패스 21873" d="M184.3,124.422a21.154,21.154,0,0,1-1.373-3.4,2.545,2.545,0,0,1-.066-.322c-.1-.659-.9-1.51-1.595-.889-.506.454-.131,1.208.067,1.715.326.836.869,1.589,1.165,2.432a6.869,6.869,0,0,0,.733,1.561.755.755,0,0,0,1.272-.107.745.745,0,0,0-.039-.682c-.058-.105-.113-.208-.166-.312" transform="translate(-92.308 -60.988)" fill="#4d2d08"/>
        <path id="패스_21874" data-name="패스 21874" d="M199.548,118.177c.006-.4.019-.805.015-1.224,0-.091,0-.185,0-.268a.877.877,0,0,0-.287-.7.778.778,0,0,0-.6-.191c-1.09.086-.751,1.607-.77,2.258a8.567,8.567,0,0,0,.432,3.4.939.939,0,0,0,.986.5c.419-.133.336-.493.353-.835a9.329,9.329,0,0,0-.062-1.691,8.786,8.786,0,0,1-.07-1.251" transform="translate(-100.904 -59.047)" fill="#4d2d08"/>
      </g>
    </g>
  </g>
</svg>
