<svg id="그룹_14386" data-name="그룹 14386" xmlns="http://www.w3.org/2000/svg" xmlns:xlink="http://www.w3.org/1999/xlink" width="123.667" height="145.394" viewBox="0 0 123.667 145.394">
  <defs>
    <clipPath id="clip-path">
      <rect id="사각형_15127" data-name="사각형 15127" width="123.667" height="145.394" fill="none"/>
    </clipPath>
  </defs>
  <g id="그룹_14385" data-name="그룹 14385" clip-path="url(#clip-path)">
    <g id="그룹_14384" data-name="그룹 14384">
      <g id="그룹_14383" data-name="그룹 14383" clip-path="url(#clip-path)">
        <path id="패스_21902" data-name="패스 21902" d="M122.774,257.1s-11.473,25.81-17.866,35.236c0,0,.574,8.846-5.728,9.6s-11.151-4.244-11.294-10.159,14.9-40.221,14.9-40.221Z" transform="translate(-59.368 -169.926)" fill="#eaac62"/>
        <path id="패스_21903" data-name="패스 21903" d="M117.169,287.447c-1.957,4.183-3.96,8.349-6.054,12.472q-.784,1.547-1.592,3.083t-1.644,3.06c-.56,1.015-1.128,2.025-1.721,3.024-.292.5-.6,1-.9,1.493s-.632.982-.948,1.474l.107-.392a15.147,15.147,0,0,1-.348,4.012,9.812,9.812,0,0,1-1.628,3.754,6.27,6.27,0,0,1-1.537,1.466,6.038,6.038,0,0,1-1.955.841,6.571,6.571,0,0,1-1.037.163c-.309.034-.662.045-1.012.053a10.8,10.8,0,0,1-2.03-.192,10.249,10.249,0,0,1-3.756-1.537,10.764,10.764,0,0,1-2.881-2.843,11.236,11.236,0,0,1-1.659-3.68,9.315,9.315,0,0,1-.2-4.053,35.734,35.734,0,0,1,.965-3.8c.375-1.242.781-2.471,1.2-3.693.842-2.444,1.744-4.86,2.667-7.269,1.852-4.814,3.8-9.586,5.789-14.339a.518.518,0,0,1,.958.4v0c-.978,2.38-1.935,4.768-2.893,7.155s-1.9,4.782-2.809,7.184-1.8,4.814-2.626,7.241c-.412,1.214-.818,2.428-1.186,3.65a34.806,34.806,0,0,0-.935,3.672,8.206,8.206,0,0,0,.179,3.574,10.091,10.091,0,0,0,1.488,3.309,9.636,9.636,0,0,0,2.571,2.541,8.9,8.9,0,0,0,3.337,1.359,9.64,9.64,0,0,0,1.808.163c.294-.01.584-.016.915-.053a5.363,5.363,0,0,0,.867-.139,4.855,4.855,0,0,0,2.816-1.88,8.629,8.629,0,0,0,1.4-3.3,14.157,14.157,0,0,0,.307-3.673.62.62,0,0,1,.1-.366l0-.008c.306-.481.627-.949.92-1.441s.6-.974.885-1.471c.582-.986,1.141-1.989,1.7-2.995s1.1-2.02,1.632-3.039l1.6-3.062q1.6-3.061,3.136-6.159l3.072-6.2,0-.006a.519.519,0,0,1,.934.45" transform="translate(-58.248 -189.295)" fill="#cc884b"/>
        <path id="패스_21904" data-name="패스 21904" d="M79.461,270.064a23.105,23.105,0,0,1,1.837,7.343c.219,3.557-1.4,7.82-4.762,9.488-7.6,3.771-16.287-1.608-18.463-6.922,0,0-5.852,1.51-7.617-2.642s4.291-16.193,12.857-12.429Z" transform="translate(-33.877 -178.461)" fill="#eaac62"/>
        <path id="패스_21905" data-name="패스 21905" d="M78.73,268.721a22.87,22.87,0,0,1,.908,2.437,24.935,24.935,0,0,1,.642,2.513c.071.428.167.852.217,1.284l.138,1.317.02.635-.018.68a12.8,12.8,0,0,1-.148,1.323,12.321,12.321,0,0,1-.716,2.556,10.309,10.309,0,0,1-1.3,2.339,8.533,8.533,0,0,1-1.934,1.9l-.28.2-.3.171-.3.168-.075.042-.089.041-.144.066c-.2.088-.377.18-.584.263l-.635.245a12.942,12.942,0,0,1-5.24.684,15.339,15.339,0,0,1-5.094-1.319,16.767,16.767,0,0,1-4.388-2.888,12.261,12.261,0,0,1-3.122-4.3l.732.367a11.078,11.078,0,0,1-2.006.267A9.771,9.771,0,0,1,53,279.6a6.592,6.592,0,0,1-1.98-.648,5.012,5.012,0,0,1-1.644-1.372,5.3,5.3,0,0,1-.555-.916l-.056-.12-.028-.06-.014-.03-.007-.015,0-.007-.016-.043-.078-.225a2.427,2.427,0,0,1-.075-.236l-.064-.284a6.837,6.837,0,0,1-.06-2.085,10.94,10.94,0,0,1,.408-1.957,14.314,14.314,0,0,1,.693-1.85,16.029,16.029,0,0,1,.926-1.738,14.578,14.578,0,0,1,1.142-1.608,13.028,13.028,0,0,1,1.361-1.441,11.09,11.09,0,0,1,1.6-1.2,8.64,8.64,0,0,1,1.831-.852,7.778,7.778,0,0,1,2-.391,7.384,7.384,0,0,1,1.02.01c.169.015.34.019.507.045l.5.089.25.045.244.068.487.138c.32.1.628.237.942.354l-.053-.02,16.138,5.188a.524.524,0,0,1,.315.282m-.865.634c-1.274-.387-2.548-.77-3.818-1.171L70,266.92q-2.024-.629-4.041-1.279l-4.035-1.3-.059-.022c-.277-.1-.55-.222-.83-.313l-.424-.119-.212-.06-.216-.038-.432-.078c-.144-.023-.29-.024-.434-.038a6.186,6.186,0,0,0-.871-.009,6.637,6.637,0,0,0-1.707.335,7.484,7.484,0,0,0-1.6.742,9.973,9.973,0,0,0-1.431,1.07,11.955,11.955,0,0,0-1.241,1.314,13.348,13.348,0,0,0-1.054,1.483,14.883,14.883,0,0,0-.852,1.613,13.151,13.151,0,0,0-.631,1.7,9.831,9.831,0,0,0-.361,1.756,5.816,5.816,0,0,0,.043,1.7,3.69,3.69,0,0,0,.688,1.483,3.83,3.83,0,0,0,1.261,1.041,5.412,5.412,0,0,0,1.624.522,8.575,8.575,0,0,0,1.771.09,9.949,9.949,0,0,0,1.762-.237l.009,0a.588.588,0,0,1,.676.346,11.132,11.132,0,0,0,2.834,3.854,15.544,15.544,0,0,0,4.07,2.662,14.226,14.226,0,0,0,4.678,1.207,11.7,11.7,0,0,0,4.733-.618l.544-.209c.184-.073.382-.174.573-.256l.144-.065.036-.016.018-.008.009,0c-.006,0,.025-.012-.01.005l.063-.035.251-.14.251-.14.237-.165a7.321,7.321,0,0,0,1.67-1.61,9.1,9.1,0,0,0,1.167-2.064,11.163,11.163,0,0,0,.667-2.3,11.536,11.536,0,0,0,.144-1.191l.023-.584-.015-.635-.118-1.2c-.043-.408-.132-.811-.2-1.217a24.369,24.369,0,0,0-.575-2.409c-.218-.717-.46-1.436-.744-2.122" transform="translate(-32.673 -177.33)" fill="#cc884b"/>
        <path id="패스_21906" data-name="패스 21906" d="M218.873,160.477a6.983,6.983,0,0,1,7.938,3.7c2.413,4.658-1.282,10.8-6.677,12.127a21.174,21.174,0,0,1-5.946.4s-26.249,10.417-26.593,10.44,4.436-16.537,4.436-16.537l20.093-6.564s2.057-5.886,5.38-4.366,2.358,5.32.55,8.007" transform="translate(-126.712 -107.697)" fill="#eaac62"/>
        <path id="패스_21907" data-name="패스 21907" d="M217.5,160.684a8.123,8.123,0,0,1,4.145.129,7.023,7.023,0,0,1,1.9.909,7.376,7.376,0,0,1,1.537,1.428,8.773,8.773,0,0,1,1.1,1.758c.034.075.07.142.1.225l.1.255a4.978,4.978,0,0,1,.174.507,6.805,6.805,0,0,1,.23,1.028,8.328,8.328,0,0,1-.469,4.108,10.47,10.47,0,0,1-2.164,3.478,10.766,10.766,0,0,1-3.3,2.419,9.808,9.808,0,0,1-1.968.681c-.66.131-1.312.235-1.973.315a17.347,17.347,0,0,1-4.036.077l.293-.037-10.787,4.3-5.4,2.143-5.411,2.107-2.71,1.046-1.36.518-.692.256-.09.032c-.04.013-.035.015-.123.041l-.106.027-.054.011-.027,0c.209.033-.315-.039-.264-.033.039.045-.366-.189-.373-.386a.613.613,0,0,1-.028-.131.534.534,0,0,1,0-.07v-.048c0-.043.007-.079.011-.1a3.833,3.833,0,0,1,.1-.426c.283-.967.6-1.869.92-2.791l.971-2.742q1.97-5.468,3.987-10.913a.556.556,0,0,1,.343-.333l18.645-6.212a.519.519,0,0,1,.337.981l-.008,0-2.316.821-2.323.8c-1.55.528-3.093,1.077-4.65,1.587l-9.322,3.106.367-.356q-2.014,5.441-3.965,10.9l-.957,2.734c-.31.909-.631,1.834-.889,2.726-.029.1-.061.231-.069.281,0,.006,0,0,0-.011v-.025l0-.046a.471.471,0,0,0-.024-.105c0-.187-.4-.4-.35-.358l-.235-.033,0,0-.009,0a.045.045,0,0,0-.018,0l.13-.047.669-.25,1.351-.519,2.7-1.053,5.4-2.122,5.391-2.153,10.78-4.311a.641.641,0,0,1,.309-.042h.01a16.214,16.214,0,0,0,3.734-.079c.628-.076,1.26-.177,1.874-.3a9.125,9.125,0,0,0,1.695-.583,9.556,9.556,0,0,0,2.943-2.125,9.284,9.284,0,0,0,1.939-3.067,7.161,7.161,0,0,0,.434-3.529,5.629,5.629,0,0,0-.188-.867,3.919,3.919,0,0,0-.137-.412l-.074-.2c-.026-.067-.067-.145-.1-.218a7.656,7.656,0,0,0-.947-1.537,6,6,0,0,0-2.878-2.008,6.727,6.727,0,0,0-1.772-.31,6.958,6.958,0,0,0-1.787.145l-.03.007a.518.518,0,0,1-.237-1.009" transform="translate(-125.472 -108.405)" fill="#cc884b"/>
        <path id="패스_21908" data-name="패스 21908" d="M123.232,169.227s2.271,26.608-9.5,36.594c-11.089,9.41-27.979-.936-29.51-1.855s-3.457-6.522,1.309-16.95,23.391-24.741,23.391-24.741Z" transform="translate(-55.738 -109.62)" fill="#eaac62"/>
        <path id="패스_21909" data-name="패스 21909" d="M127.1,241.528a16.5,16.5,0,0,0-6.231-5.22,15.722,15.722,0,0,1,.392-2.412c1.574-6.462,6.907-10.71,11.912-9.491s7.788,7.447,6.213,13.906c-1.283,5.257-5.342,9.669-9.4,10.246a16.276,16.276,0,0,0-2.888-7.029" transform="translate(-81.649 -151.449)" fill="#f9e3c5"/>
        <path id="패스_21910" data-name="패스 21910" d="M188,211.754l.08,1.31c.005.428.011.949.018,1.546-.028.589-.024,1.258-.087,1.981q-.042.543-.086,1.13-.067.583-.137,1.2c-.041.414-.1.836-.172,1.266s-.125.873-.212,1.318-.177.9-.267,1.353-.212.913-.317,1.377l-.165.7c-.061.232-.133.46-.2.692l-.41,1.387c-.31.914-.6,1.837-.949,2.719-.172.443-.33.886-.508,1.316l-.531,1.27c-.167.42-.35.825-.535,1.219l-.532,1.158c-.36.746-.727,1.438-1.051,2.084-.342.636-.676,1.209-.963,1.721s-.568.941-.786,1.3l-.7,1.124a.518.518,0,0,1-.892-.525l.021-.037.166-.3c.11-.193.262-.481.475-.835s.477-.781.739-1.294l.432-.809c.155-.283.329-.574.491-.889.317-.633.675-1.311,1.027-2.042l.526-1.132c.183-.385.363-.781.528-1.192l.516-1.245c.17-.423.319-.86.482-1.295.335-.868.6-1.774.9-2.67q.195-.68.389-1.359c.063-.227.131-.451.189-.678l.154-.682c.1-.454.214-.9.3-1.347l.251-1.322c.085-.434.139-.864.209-1.283s.129-.83.17-1.232.106-.79.154-1.167.076-.742.111-1.093c.079-.7.09-1.345.132-1.915.01-.565.012-1.055.029-1.463-.013-.836-.019-1.313-.019-1.313v-.016a.518.518,0,0,1,1.036-.039" transform="translate(-120.603 -142.715)" fill="#cc884b"/>
        <path id="패스_21911" data-name="패스 21911" d="M80.528,254.854l-.073.2c-.048.133-.115.334-.2.591a21.255,21.255,0,0,0-.54,2.171c-.084.456-.172.95-.23,1.477s-.1,1.082-.121,1.656-.015,1.168.025,1.766c.02.3.053.6.075.9.043.3.064.6.126.9s.107.6.183.889.152.582.237.867.2.558.294.834.237.529.354.787l.407.727.438.667.46.6c.156.188.319.359.469.53a6.4,6.4,0,0,0,.458.463c.152.141.283.288.43.4.288.233.526.452.745.606l.683.488.008.006a.519.519,0,0,1-.572.864l-.2-.124c-.13-.082-.328-.2-.567-.358s-.51-.386-.833-.63a9.506,9.506,0,0,1-.99-.931c-.166-.188-.345-.377-.517-.583l-.509-.661-.481-.739c-.15-.261-.295-.532-.445-.805-.128-.284-.268-.569-.395-.863s-.248-.6-.341-.909-.2-.623-.278-.944-.153-.642-.213-.967-.1-.652-.15-.976c-.029-.326-.069-.65-.095-.972a18.255,18.255,0,0,1-.051-1.9c0-.307.025-.609.041-.9.033-.293.054-.582.1-.86.069-.558.184-1.077.285-1.556s.223-.911.343-1.29.226-.709.33-.975.19-.475.253-.618l.1-.222v0a.519.519,0,0,1,.961.39" transform="translate(-52.768 -171.688)" fill="#cc884b"/>
        <path id="패스_21912" data-name="패스 21912" d="M138.191,282.307s4.793,9.724-1.1,15.525" transform="translate(-92.607 -190.704)" fill="none" stroke="#cc884b" stroke-linecap="round" stroke-linejoin="round" stroke-width="3.995"/>
        <path id="패스_21913" data-name="패스 21913" d="M132.379,194.1a23.835,23.835,0,0,1-14.9,6.678c-9.639.827-15.071-1.2-20.337-7.613Z" transform="translate(-65.618 -130.485)" fill="#ca9656"/>
        <path id="패스_21914" data-name="패스 21914" d="M125.008,79.567c2.379,13.891-6.791,25.314-22.823,28.06-15.711,2.693-28.482-4.97-30.864-18.862s7.805-26.647,22.631-29.187,28.675,6.1,31.055,19.99" transform="translate(-47.946 -39.947)" fill="#eaac62"/>
        <path id="패스_21915" data-name="패스 21915" d="M181.8,85.955a9.283,9.283,0,0,1-1.515,1.518A23.437,23.437,0,0,1,185.011,98.1c2.32,13.532-6.324,24.717-21.594,27.827.4-.056.8-.116,1.214-.185,16.032-2.746,25.2-14.169,22.823-28.06A23.453,23.453,0,0,0,181.8,85.955" transform="translate(-110.391 -58.064)" fill="#ffc576"/>
        <path id="패스_21916" data-name="패스 21916" d="M172.851,46.439a9.117,9.117,0,0,1,4.314-5.321,9.754,9.754,0,0,1,4.253-1.177,10.327,10.327,0,0,1,5.889,1.528,9.555,9.555,0,0,1,4.505,6.915,9.276,9.276,0,0,1-1.368,6.45,7.634,7.634,0,0,1-1.212,1.481" transform="translate(-116.764 -26.974)" fill="#eaac62"/>
        <path id="패스_21917" data-name="패스 21917" d="M205.94,41.484a10.313,10.313,0,0,0-5.505-1.531,10.385,10.385,0,0,1,3.346,1.321,9.558,9.558,0,0,1,4.5,6.915,9.264,9.264,0,0,1-1.368,6.452,8.253,8.253,0,0,1-.561.777l1.51.911a7.622,7.622,0,0,0,1.212-1.481,9.277,9.277,0,0,0,1.369-6.45,9.557,9.557,0,0,0-4.506-6.915" transform="translate(-135.398 -26.989)" fill="#ffc576"/>
        <path id="패스_21918" data-name="패스 21918" d="M187.414,58.987a4.208,4.208,0,0,1,2.33-2.075,5.032,5.032,0,0,1,4.885,1,4.545,4.545,0,0,1,1.592,3.577,4.653,4.653,0,0,1-.709,2.436,29.869,29.869,0,0,0-8.169-4.78c.04-.1.071-.156.071-.156" transform="translate(-126.554 -38.271)" fill="#4d2d08"/>
        <path id="패스_21919" data-name="패스 21919" d="M171.277,45.009l.028-.1c.017-.06.05-.163.095-.3a9.445,9.445,0,0,1,.451-1.082,9.692,9.692,0,0,1,2.576-3.25,6.468,6.468,0,0,1,.529-.4l.279-.2.3-.181.151-.091.076-.046.038-.023.009-.006.04-.021.019-.009.3-.148.622-.3c.229-.092.481-.175.725-.263a4.919,4.919,0,0,1,.752-.226l.77-.174c.261-.049.53-.065.8-.1l.406-.044.051-.005h.169l.194,0,.39,0c.13,0,.281.014.421.02a7.622,7.622,0,0,1,.849.08l.42.059.416.087a10.538,10.538,0,0,1,3.186,1.263l.187.108.023.013.05.034.042.029.083.059.333.236a5.538,5.538,0,0,1,.667.514c.22.2.448.389.656.591l.573.636.142.158.125.172.247.343.245.342c.081.114.141.241.212.36.135.244.276.481.4.725l.324.75a9.872,9.872,0,0,1,.677,3.021c.015.235.039.459.044.694s-.017.488-.025.726a10.042,10.042,0,0,1-.153,1.344,9.587,9.587,0,0,1-.714,2.242,8.079,8.079,0,0,1-.462.876c-.087.133-.156.248-.249.381l-.221.3c-.146.192-.254.364-.386.514l-.354.381-.3.314a.516.516,0,0,1-.768-.688l.058-.068.227-.266.274-.314c.106-.13.224-.323.361-.512l.215-.309.193-.312a6.943,6.943,0,0,0,.384-.77,9.883,9.883,0,0,0,.607-1.983,8.929,8.929,0,0,0,.132-1.174q.013-.3.026-.609c0-.217-.03-.454-.044-.686a8.739,8.739,0,0,0-.589-2.682l-.285-.665c-.109-.217-.241-.424-.361-.64-.064-.1-.117-.218-.19-.318l-.221-.3-.222-.3-.111-.151-.128-.138-.513-.558c-.181-.17-.37-.324-.554-.49a4.793,4.793,0,0,0-.626-.475l-.335-.233-.084-.058-.042-.029-.01-.007c.008.006-.034-.023.017.011l-.021-.012-.168-.094a9.311,9.311,0,0,0-2.844-1.1l-.37-.074-.373-.048a6.222,6.222,0,0,0-.729-.063c-.122,0-.232-.019-.363-.016l-.39.008-.194,0-.1,0h-.024c-.009,0,.036,0,.012,0h-.011l-.045.005-.358.041c-.237.03-.474.043-.7.085l-.678.154a3.823,3.823,0,0,0-.636.189c-.2.073-.4.133-.605.212-.211.1-.417.2-.625.3l-.307.141-.235.136-.264.152-.248.166a5.279,5.279,0,0,0-.47.34,8.433,8.433,0,0,0-1.465,1.463,10,10,0,0,0-.875,1.348,8.429,8.429,0,0,0-.438.937c-.041.105-.072.188-.093.254l-.032.095,0,.013a.518.518,0,0,1-.988-.314" transform="translate(-115.687 -25.695)" fill="#cc884b"/>
        <path id="패스_21920" data-name="패스 21920" d="M77.365,62.843a9.132,9.132,0,0,0-5.677-3.837,9.744,9.744,0,0,0-4.41.11,10.331,10.331,0,0,0-5.191,3.172,9.563,9.563,0,0,0-2.3,7.924,9.263,9.263,0,0,0,3.184,5.776,7.557,7.557,0,0,0,1.589,1.066" transform="translate(-40.299 -39.723)" fill="#eaac62"/>
        <path id="패스_21921" data-name="패스 21921" d="M68.679,60.764a9.762,9.762,0,0,1,4.414-.111A9.156,9.156,0,0,1,78.63,64.29l1.3-1.447a9.135,9.135,0,0,0-5.678-3.837,9.743,9.743,0,0,0-4.41.11,10.329,10.329,0,0,0-5.191,3.172,9.908,9.908,0,0,0-1.2,1.687c.011-.011.019-.026.03-.037a10.326,10.326,0,0,1,5.189-3.173" transform="translate(-42.868 -39.723)" fill="#ffc576"/>
        <path id="패스_21922" data-name="패스 21922" d="M84.757,76.483a4.211,4.211,0,0,0-2.832-1.313,5.038,5.038,0,0,0-4.385,2.377,4.543,4.543,0,0,0-.483,3.886,4.693,4.693,0,0,0,1.385,2.125,29.953,29.953,0,0,1,6.427-6.949,1.5,1.5,0,0,0-.112-.126" transform="translate(-51.897 -50.776)" fill="#4d2d08"/>
        <path id="패스_21923" data-name="패스 21923" d="M75.729,61.79l-.056-.082c-.038-.058-.09-.129-.157-.221a8.663,8.663,0,0,0-3.731-2.839,5.508,5.508,0,0,0-.552-.194l-.287-.09-.3-.071-.272-.065-.335-.048-.685-.1c-.219-.013-.43-.008-.649-.015a3.881,3.881,0,0,0-.669.017l-.7.064c-.233.03-.464.092-.7.137l-.353.072-.044.009-.012,0c-.023.006.019-.006.011,0l-.023.007-.093.028-.186.056-.373.112c-.126.037-.226.085-.34.127a6.292,6.292,0,0,0-.673.285l-.339.16-.328.185a10.346,10.346,0,0,0-2.4,1.871l-.134.138-.017.017c.043-.052.007-.009.015-.018l-.008.01-.032.04-.064.079L61,61.78a4.82,4.82,0,0,0-.465.631c-.129.21-.268.411-.394.624l-.336.679-.084.169-.064.177-.128.352-.129.351c-.043.117-.062.24-.094.359-.055.24-.124.477-.167.716l-.085.721a8.77,8.77,0,0,0,.194,2.753c.053.226.1.459.154.669l.2.582a8.976,8.976,0,0,0,.467,1.1,8.778,8.778,0,0,0,1.171,1.73,6.928,6.928,0,0,0,.6.621l.282.242.3.23c.188.14.358.288.5.376l.363.21.3.178.05.029a.517.517,0,0,1-.507.9l-.383-.2-.46-.251c-.176-.1-.329-.231-.526-.372l-.3-.224c-.128-.1-.23-.189-.354-.29a8.1,8.1,0,0,1-.709-.7c-.115-.134-.247-.264-.359-.415l-.349-.463a5.434,5.434,0,0,1-.325-.516c-.1-.181-.225-.357-.316-.554a10.033,10.033,0,0,1-.535-1.253l-.234-.693c-.063-.228-.1-.449-.157-.678a9.912,9.912,0,0,1-.209-3.1q.05-.4.1-.813c.05-.27.12-.539.18-.811.035-.135.056-.274.1-.406l.139-.4.141-.4.072-.2.092-.192.372-.771c.143-.252.307-.5.462-.751a5.607,5.607,0,0,1,.494-.681l.253-.32.063-.08.032-.04.038-.046.019-.019.149-.156a11.582,11.582,0,0,1,2.676-2.124l.368-.21.38-.184a7.6,7.6,0,0,1,.783-.337c.131-.049.271-.11.395-.148l.372-.115.185-.058.092-.029.023-.007.034-.009.012,0,.05-.011.4-.083c.266-.051.529-.117.793-.151l.789-.071a4.859,4.859,0,0,1,.791-.016c.263.009.531.011.78.029.231.033.46.064.684.1l.334.055.021,0c.08.015.029.006.049.01l.011,0,.043.011.087.023.171.045.338.09.326.11a6.551,6.551,0,0,1,.625.235,9.657,9.657,0,0,1,2.061,1.175,8.868,8.868,0,0,1,1.349,1.227,9.614,9.614,0,0,1,.727.924c.079.118.139.207.171.261l.053.085.007.011a.518.518,0,0,1-.868.567" transform="translate(-39.094 -38.382)" fill="#cc884b"/>
        <path id="패스_21924" data-name="패스 21924" d="M119.605,87.978l.183.238c.121.155.3.389.532.716A23.891,23.891,0,0,1,124,96.764c.13.494.25,1.008.353,1.54q.038.2.077.4l.019.1.018.114.03.2q.06.405.122.821a25.454,25.454,0,0,1,.215,3.606,22.694,22.694,0,0,1-1.5,7.958,22.452,22.452,0,0,1-4.892,7.6,27.414,27.414,0,0,1-7.867,5.576c-.374.171-.744.353-1.125.514l-1.147.472-1.17.42c-.391.137-.79.251-1.186.378a40.386,40.386,0,0,1-4.869,1.127,35.619,35.619,0,0,1-9.906.275,27.652,27.652,0,0,1-9.222-2.759,23.058,23.058,0,0,1-7.094-5.571,22.664,22.664,0,0,1-2.394-3.452,21.991,21.991,0,0,1-1.631-3.567c-.229-.586-.384-1.183-.565-1.756-.139-.585-.307-1.149-.4-1.713q-.082-.421-.162-.831-.063-.409-.124-.807t-.1-.805q-.034-.393-.067-.775a23.876,23.876,0,0,1,.956-8.593c.111-.377.208-.662.274-.854l.1-.291a.518.518,0,0,1,.984.325l-.007.021s-.031.1-.091.28-.15.458-.25.82a24.783,24.783,0,0,0-.678,3.178,23.082,23.082,0,0,0-.163,5.033q.034.364.069.739l.095.749q.062.388.126.787l.162.794c.093.54.254,1.078.385,1.636.173.546.319,1.117.538,1.674a20.832,20.832,0,0,0,1.549,3.391,21.5,21.5,0,0,0,2.269,3.276,21.909,21.909,0,0,0,6.739,5.295,26.159,26.159,0,0,0,8.84,2.622,32.1,32.1,0,0,0,4.776.187l.6-.019.6-.042c.4-.032.805-.049,1.2-.1s.792-.083,1.2-.14l1.215-.185a34.281,34.281,0,0,0,9.151-2.833,26.248,26.248,0,0,0,7.5-5.336,21.208,21.208,0,0,0,4.625-7.183,21.808,21.808,0,0,0,1.467-7.525c0-.3.013-.6,0-.888s-.023-.583-.035-.869-.043-.564-.064-.84-.039-.543-.083-.823-.078-.551-.116-.821l-.028-.2L123.3,99l-.018-.1-.07-.385c-.095-.509-.205-1-.325-1.471a23.7,23.7,0,0,0-1.766-4.714,22.841,22.841,0,0,0-1.657-2.791c-.207-.3-.383-.539-.5-.7l-.18-.241,0,0a.519.519,0,0,1,.827-.626" transform="translate(-46.844 -59.294)" fill="#cc884b"/>
        <path id="패스_21925" data-name="패스 21925" d="M111.792,61.187l.776-.4.89-.454c.174-.086.35-.186.552-.275l.647-.266,1.46-.6c.522-.2,1.083-.356,1.658-.546l.881-.275c.3-.074.611-.139.921-.209s.623-.138.939-.2.621-.139.959-.176l.94-.127c.313-.041.643-.06.96-.091.641-.07,1.262-.068,1.866-.112.6,0,1.189-.035,1.743-.009s1.078.03,1.559.074l.692.052.622.075c.39.045.73.088,1.007.139l.874.144a.517.517,0,0,1-.129,1.026l-.053,0-.223-.021c-.145-.015-.36-.027-.628-.066s-.6-.069-.974-.1-.8-.068-1.265-.1-.967-.057-1.5-.068c-.533-.028-1.1,0-1.677,0-.579.033-1.186.053-1.784.128-.3.035-.6.056-.913.1l-.938.14c-.293.034-.6.122-.9.179s-.6.131-.9.2-.593.138-.882.214l-.841.277-.813.266c-.265.087-.535.15-.777.251-.488.2-.957.362-1.387.525l-.619.23c-.2.076-.385.17-.561.246-.353.157-.657.3-.914.406l-.8.341-.021.009a.518.518,0,0,1-.439-.939" transform="translate(-75.327 -38.804)" fill="#cc884b"/>
        <path id="패스_21926" data-name="패스 21926" d="M101.312,167.74c.2,1.995,2.542,3.393,5.228,3.119s4.7-2.111,4.5-4.108-2.545-3.391-5.228-3.12-4.7,2.113-4.5,4.11" transform="translate(-68.429 -110.513)" fill="#eb914b"/>
        <path id="패스_21927" data-name="패스 21927" d="M189.238,152.674c.205,2,2.544,3.394,5.229,3.121s4.7-2.112,4.5-4.108-2.544-3.394-5.227-3.121-4.7,2.112-4.5,4.108" transform="translate(-127.825 -100.336)" fill="#eb914b"/>
        <path id="패스_21928" data-name="패스 21928" d="M125.061,151.752h0v0Z" transform="translate(-84.481 -102.511)" fill="#1a1818"/>
        <path id="패스_21929" data-name="패스 21929" d="M152.42,160.733c.563,3.6-2.743,7.112-7.39,7.841s-8.869-1.6-9.436-5.2,2.745-7.109,7.389-7.838,8.872,1.6,9.437,5.2" transform="translate(-91.554 -104.976)" fill="#f9e3c5"/>
        <path id="패스_21930" data-name="패스 21930" d="M158.919,163.626c-.021-.169-.141-.288-.25-.248l-.888.295c-.057,0-.1.053-.133.125a.418.418,0,0,0-.024.249l.983,4.573c.063.36.289.616.532.613a.23.23,0,0,0,.1-.008h.007l.012-.007a.785.785,0,0,0,.372-.927Z" transform="translate(-106.472 -110.359)" fill="#1a1818"/>
        <path id="패스_21931" data-name="패스 21931" d="M147.044,154.558a5.681,5.681,0,0,1,2.882-1.373c.053-.009.112-.016.169-.023s.113-.025.169-.033a5.691,5.691,0,0,1,3.174.34c.459.238,1,.58,1.04,1.174a3.577,3.577,0,0,1-1.178,2.224,4.887,4.887,0,0,1-2.284,1.58.058.058,0,0,0-.02,0c-.005,0-.013,0-.021.006a4.913,4.913,0,0,1-2.677-.734c-.65-.363-1.616-.9-1.847-1.713a1.58,1.58,0,0,1,.592-1.452" transform="translate(-98.905 -103.386)" fill="#1a1818"/>
        <path id="패스_21932" data-name="패스 21932" d="M131.384,144.78a2.966,2.966,0,0,1-3.246,2.957,3.512,3.512,0,0,1-2.764-3.8,2.974,2.974,0,0,1,3.254-2.95,3.489,3.489,0,0,1,2.757,3.8" transform="translate(-84.686 -95.219)" fill="#fff"/>
        <path id="패스_21933" data-name="패스 21933" d="M134.7,145.141a2.356,2.356,0,1,1-2.721-2.424,2.6,2.6,0,0,1,2.721,2.424" transform="translate(-87.881 -96.392)" fill="#1a1818"/>
        <path id="패스_21934" data-name="패스 21934" d="M141.315,144.322a4.227,4.227,0,0,1,.657,2.5,2.563,2.563,0,0,1-1.231,2.1l.088-4.615Z" transform="translate(-95.073 -97.478)" fill="#1a1818"/>
        <path id="패스_21935" data-name="패스 21935" d="M125.869,141.242a3.439,3.439,0,0,0-.748-.9,2.823,2.823,0,0,0-.31-.239,2.485,2.485,0,0,0-.352-.2,3.384,3.384,0,0,0-.834-.267,3.211,3.211,0,0,0-1.869.215l-.076.032a1.437,1.437,0,0,0-.153.081l-.194.11a3.28,3.28,0,0,0-1.02,1.035,3.4,3.4,0,0,0-.385.87l-1.5-.262a.706.706,0,0,0-.312-.019.425.425,0,0,0-.366.323.47.47,0,0,0,.394.555l1.634.6c0,.082.008.165.017.243a3.3,3.3,0,0,0,.1.514,2.089,2.089,0,0,0,.111.321l.045.106a.18.18,0,0,0,.194.113.322.322,0,0,0,.044-.011.2.2,0,0,0,.1-.222l-.021-.114a2.241,2.241,0,0,1-.045-.285,2.466,2.466,0,0,1-.028-.443,4.132,4.132,0,0,1,.055-.584,3.413,3.413,0,0,1,.512-1.3,3.176,3.176,0,0,1,.509-.584,2.563,2.563,0,0,1,.264-.2l.233-.145a.566.566,0,0,1,.1-.054l.059-.026a2.7,2.7,0,0,1,1.5-.208,2.644,2.644,0,0,1,.687.193,3,3,0,0,1,.3.149l.082.045c.067.037.134.075.2.117a4.792,4.792,0,0,1,.783.666c.167.183.264.31.269.316a.125.125,0,0,0,.182.01.161.161,0,0,0,.032-.163l-.045-.095a2.079,2.079,0,0,0-.154-.294" transform="translate(-79.539 -94.293)" fill="#1a1818"/>
        <path id="패스_21936" data-name="패스 21936" d="M188.43,143.179v0Z" transform="translate(-127.287 -96.716)" fill="#1a1818"/>
        <path id="패스_21937" data-name="패스 21937" d="M170.42,138.092a2.965,2.965,0,0,0,4.045,1.707,3.506,3.506,0,0,0,1.341-4.506,2.976,2.976,0,0,0-4.05-1.7,3.493,3.493,0,0,0-1.337,4.5" transform="translate(-114.903 -90.041)" fill="#fff"/>
        <path id="패스_21938" data-name="패스 21938" d="M177.276,132.557a.419.419,0,0,0-.452-.18.694.694,0,0,0-.279.116l-1.33.75a3.446,3.446,0,0,0-.652-.694,3.313,3.313,0,0,0-.827-.483,2.934,2.934,0,0,0-.483-.152l-.212-.04a1.573,1.573,0,0,0-.174-.022l-.086-.006a3.228,3.228,0,0,0-1.832.417,3.6,3.6,0,0,0-.695.528,2.871,2.871,0,0,0-.269.307,2.551,2.551,0,0,0-.208.326,3.341,3.341,0,0,0-.407,1.1,1.729,1.729,0,0,0-.048.325l-.012.127a.153.153,0,0,0,.09.128.125.125,0,0,0,.165-.079s.048-.152.145-.378a4.643,4.643,0,0,1,.52-.894,2,2,0,0,1,.143-.173l.059-.068a3.149,3.149,0,0,1,.24-.244,2.664,2.664,0,0,1,.583-.41,2.731,2.731,0,0,1,1.483-.305c.021,0,.044.005.069.007a.516.516,0,0,1,.117.019l.21.044.051.013a2.593,2.593,0,0,1,.317.105,3.171,3.171,0,0,1,.668.375,3.452,3.452,0,0,1,.921,1.061,4.639,4.639,0,0,1,.243.527,2.611,2.611,0,0,1,.125.438,2.577,2.577,0,0,1,.053.286l.016.118a.189.189,0,0,0,.17.162.1.1,0,0,0,.041,0,.182.182,0,0,0,.147-.174l.007-.131a1.717,1.717,0,0,0,0-.318,2.945,2.945,0,0,0-.076-.519,2.183,2.183,0,0,0-.062-.238l1.336-1.105a.473.473,0,0,0,.19-.661" transform="translate(-114.371 -89.057)" fill="#1a1818"/>
        <path id="패스_21939" data-name="패스 21939" d="M169.79,139.137a2.355,2.355,0,1,0,1.759-3.191,2.6,2.6,0,0,0-1.759,3.191" transform="translate(-114.657 -91.812)" fill="#1a1818"/>
        <path id="패스_21940" data-name="패스 21940" d="M169.411,139.341a4.221,4.221,0,0,0,.213,2.572,2.563,2.563,0,0,0,1.857,1.569l-1.619-4.324Z" transform="translate(-114.367 -94.004)" fill="#1a1818"/>
        <path id="패스_21941" data-name="패스 21941" d="M78.406,181.147c-.135-6.808,4.891-9.338,9.928-5.952,5.14,3.458,3.652,9.592,3.159,11.182a24.51,24.51,0,0,1-2.338,6.34c-1.692,3.262-2.958,6.133-6.3,8.1a4.457,4.457,0,0,1-5-.136c-3.022-1.933-3.6-5.944-2.908-9a42.534,42.534,0,0,1,3.461-10.539" transform="translate(-50.45 -117.338)" fill="#eaac62"/>
        <path id="패스_21942" data-name="패스 21942" d="M77.361,196.319l-.218.455c-.144.3-.328.71-.553,1.275s-.475,1.245-.727,2.049l-.857,2.7c-.321.992-.6,2.088-.883,3.256-.132.586-.3,1.186-.41,1.785a12.356,12.356,0,0,0-.2,1.842,8.081,8.081,0,0,0,.663,3.706,4.3,4.3,0,0,0,1.119,1.467,4.076,4.076,0,0,0,.774.508l.213.1.053.024.013.006c.007,0-.016-.006,0,0l.031.012.123.047.243.091.222.069a4.865,4.865,0,0,0,1.871.2,4.933,4.933,0,0,0,1.794-.545c.137-.067.294-.159.407-.224l.433-.278c.152-.091.262-.187.395-.279s.254-.186.377-.293a10.612,10.612,0,0,0,1.372-1.331,18.357,18.357,0,0,0,2.093-3.03c.587-1.028,1.111-2.048,1.584-2.974.243-.474.443-.909.637-1.341l.275-.631.241-.6c.158-.389.279-.762.406-1.1l.3-.948c.16-.578.283-1.033.345-1.346l.107-.479.006-.025a.518.518,0,0,1,1.012.224l-.111.506c-.064.332-.191.809-.357,1.415l-.312.991c-.13.354-.256.743-.418,1.146l-.248.627-.282.654c-.2.444-.419.926-.654,1.389-.482.95-1,1.961-1.6,3.03a19.325,19.325,0,0,1-2.207,3.21,11.666,11.666,0,0,1-1.5,1.461c-.133.116-.278.226-.428.333s-.3.229-.443.313l-.433.278c-.186.11-.326.191-.5.278a6.009,6.009,0,0,1-2.186.662,5.943,5.943,0,0,1-2.3-.244l-.283-.09-.25-.093-.123-.047-.031-.011-.047-.02-.067-.03-.267-.122a5.185,5.185,0,0,1-.988-.646,5.412,5.412,0,0,1-1.409-1.832,9.168,9.168,0,0,1-.779-4.221,13.494,13.494,0,0,1,.215-2.014c.031-.17.063-.326.1-.477s.057-.312.086-.467c.054-.305.137-.6.2-.9.282-1.178.59-2.286.866-3.312l.816-2.792c.13-.414.269-.8.393-1.155s.285-.666.42-.95.256-.537.372-.758a5.108,5.108,0,0,1,.3-.544l.268-.43.019-.03a.518.518,0,0,1,.907.5" transform="translate(-48.906 -132.116)" fill="#cc884b"/>
        <path id="패스_21943" data-name="패스 21943" d="M98.953,186.94s2.908-7.576-3.028-11.57c-5.158-3.47-10.8-.245-9.912,6.459" transform="translate(-58.041 -117.512)" fill="none" stroke="#cc884b" stroke-linecap="round" stroke-linejoin="round" stroke-width="3.995"/>
        <path id="패스_21944" data-name="패스 21944" d="M296.906,133.822a7.172,7.172,0,0,0-7.829-3.533c.1-1.194,1.316-5.291-3.15-7.472-5.343-2.611-13.362,5.5-7.463,18.762,13.61,5.03,21.387-2.6,18.442-7.756" transform="translate(-186.707 -82.636)" fill="#e92d17"/>
        <path id="패스_21945" data-name="패스 21945" d="M295.126,132.553c-.083-.168-.165-.372-.249-.51a5,5,0,0,0-.268-.453,5.13,5.13,0,0,0-.313-.431,4.836,4.836,0,0,0-.744-.747,4.762,4.762,0,0,0-.426-.31c-.148-.1-.3-.181-.458-.262s-.319-.151-.486-.214a6.8,6.8,0,0,0-2.113-.423,9.132,9.132,0,0,0-1.1.014c-.371.026-.735.072-1.112.134a.552.552,0,0,1-.633-.456.542.542,0,0,1,.016-.248l0-.011a6.789,6.789,0,0,0,.134-3.943,4.242,4.242,0,0,0-.95-1.644,5.24,5.24,0,0,0-1.582-1.132,6.084,6.084,0,0,0-.924-.366,4.6,4.6,0,0,0-.938-.169,4.993,4.993,0,0,0-1.913.239,6.8,6.8,0,0,0-3.179,2.307,10.2,10.2,0,0,0-1.781,3.647,14.011,14.011,0,0,0-.454,4.119,22.442,22.442,0,0,0,2.019,8.169l-.321-.3a26.4,26.4,0,0,0,5.909,1.506,16.41,16.41,0,0,0,6-.257,10.755,10.755,0,0,0,2.753-1.087,7.82,7.82,0,0,0,2.223-1.865,5.687,5.687,0,0,0,1.2-2.558,4.844,4.844,0,0,0,.046-1.4,4.945,4.945,0,0,0-.358-1.359Zm.947-.422a5.982,5.982,0,0,1,.453,1.645,5.909,5.909,0,0,1-.037,1.71,6.448,6.448,0,0,1-.5,1.627,7.172,7.172,0,0,1-.88,1.443,8.535,8.535,0,0,1-2.523,2.163,11.906,11.906,0,0,1-3.048,1.2,17.547,17.547,0,0,1-6.418.28,28.264,28.264,0,0,1-6.166-1.564.582.582,0,0,1-.331-.31,23.608,23.608,0,0,1-2.159-8.592,15.207,15.207,0,0,1,.473-4.478,11.361,11.361,0,0,1,1.993-4.1,8,8,0,0,1,3.761-2.721,6.234,6.234,0,0,1,2.387-.294,5.82,5.82,0,0,1,1.207.221,7.356,7.356,0,0,1,1.1.436,6.474,6.474,0,0,1,1.948,1.4,5.345,5.345,0,0,1,1.2,2.127,6.822,6.822,0,0,1,.251,2.371,9.3,9.3,0,0,1-.441,2.281l-.672-.783c.393-.059.805-.107,1.214-.129a10.239,10.239,0,0,1,1.239,0,7.907,7.907,0,0,1,2.454.528c.2.078.391.17.581.266s.374.208.553.326a5.783,5.783,0,0,1,.516.385,5.461,5.461,0,0,1,.472.436,5.751,5.751,0,0,1,.421.483,6.222,6.222,0,0,1,.368.519,6.093,6.093,0,0,1,.319.557c.11.2.169.361.256.544Z" transform="translate(-185.397 -81.148)" fill="#b32312"/>
        <path id="패스_21946" data-name="패스 21946" d="M303.7,132.348c-.651.408-1.715-.121-2.371-1.178s-.655-2.242,0-2.649,1.717.124,2.37,1.18.656,2.241,0,2.646" transform="translate(-203.223 -86.727)" fill="#fff"/>
        <path id="패스_21947" data-name="패스 21947" d="M263.225,164.045s2.057-5.886,5.38-4.366,2.358,5.32.55,8.007" transform="translate(-177.813 -107.697)" fill="#eaac62"/>
        <path id="패스_21948" data-name="패스 21948" d="M261.657,162.571l.07-.195c.046-.123.114-.3.209-.525a12.754,12.754,0,0,1,.928-1.79,8.583,8.583,0,0,1,.826-1.111,4.9,4.9,0,0,1,1.256-1.043,3.073,3.073,0,0,1,1.847-.384,2.944,2.944,0,0,1,.936.261l.056.023.061.032.022.012.087.049.174.1.174.1.087.049.1.071a4.185,4.185,0,0,1,1.281,1.378,4.682,4.682,0,0,1,.492,1.7,5.93,5.93,0,0,1-.093,1.581,5.718,5.718,0,0,1-.164.7c-.055.225-.135.43-.2.63s-.151.385-.226.562-.153.34-.232.491c-.148.307-.3.56-.423.771s-.234.367-.3.477l-.109.167a.517.517,0,0,1-.891-.522l.03-.057.328-.619c.1-.2.224-.437.349-.717.067-.138.134-.287.193-.447s.142-.321.2-.5.132-.357.178-.549a4.7,4.7,0,0,0,.138-.594,4.817,4.817,0,0,0,.09-1.27,2.742,2.742,0,0,0-1.242-2.154c-.021-.016-.039-.033-.063-.049l-.088-.048-.176-.1-.175-.1-.087-.047-.022-.012-.011-.006-.005,0,.031.016-.037-.014a1.74,1.74,0,0,0-.6-.155,1.855,1.855,0,0,0-1.113.271,4.326,4.326,0,0,0-.931.784,8.276,8.276,0,0,0-.733.923c-.208.31-.39.606-.546.873s-.277.509-.385.705-.181.356-.232.462l-.074.16-.021.044a.517.517,0,0,1-.957-.391" transform="translate(-176.734 -106.396)" fill="#cc884b"/>
      </g>
    </g>
  </g>
</svg>
