<svg xmlns="http://www.w3.org/2000/svg" xmlns:xlink="http://www.w3.org/1999/xlink" width="85" height="85" viewBox="0 0 85 85">
  <defs>
    <clipPath id="clip-path">
      <rect id="사각형_15096" data-name="사각형 15096" width="85" height="85" transform="translate(783 955)" fill="#fff" stroke="#707070" stroke-width="1"/>
    </clipPath>
    <clipPath id="clip-path-2">
      <rect id="사각형_14454" data-name="사각형 14454" width="36.423" height="52.594" fill="none"/>
    </clipPath>
  </defs>
  <g id="마스크_그룹_12100" data-name="마스크 그룹 12100" transform="translate(-783 -955)" clip-path="url(#clip-path)">
    <g id="그룹_13320" data-name="그룹 13320" transform="translate(0 0.693)">
      <g id="그룹_13319" data-name="그룹 13319" transform="translate(804 980.406)">
        <path id="패스_20892" data-name="패스 20892" d="M.672,43.168,7.308,40.5,9.2,47.4l17.44-35.175L18.112,7.994Z" transform="translate(0.393 4.67)" fill="#e7eefe"/>
        <g id="그룹_13316" data-name="그룹 13316" transform="translate(0 0)">
          <g id="그룹_13315" data-name="그룹 13315" clip-path="url(#clip-path-2)">
            <path id="패스_20893" data-name="패스 20893" d="M9.2,47.4,7.31,40.5.672,43.168,18.112,7.994l8.529,4.228Z" transform="translate(0.393 4.67)" fill="none" stroke="#000" stroke-linejoin="bevel" stroke-width="1.5"/>
          </g>
        </g>
        <path id="패스_20894" data-name="패스 20894" d="M5.927,12.222,23.366,47.4l1.891-6.9L31.9,43.169,14.456,7.994Z" transform="translate(3.462 4.67)" fill="#e7eefe"/>
        <g id="그룹_13318" data-name="그룹 13318" transform="translate(0 0)">
          <g id="그룹_13317" data-name="그룹 13317" clip-path="url(#clip-path-2)">
            <path id="패스_20895" data-name="패스 20895" d="M23.366,47.4l1.891-6.9L31.9,43.168,14.456,7.994,5.926,12.222Z" transform="translate(3.462 4.67)" fill="none" stroke="#000" stroke-linejoin="bevel" stroke-width="1.5"/>
            <path id="패스_20896" data-name="패스 20896" d="M22.224,3.9h0a5.284,5.284,0,0,0,5.405,3.121A5.284,5.284,0,0,1,32.464,15.4a5.289,5.289,0,0,0,0,6.243,5.284,5.284,0,0,1-4.835,8.374,5.282,5.282,0,0,0-5.405,3.121,5.284,5.284,0,0,1-9.67,0,5.281,5.281,0,0,0-5.405-3.121A5.284,5.284,0,0,1,2.314,21.64a5.284,5.284,0,0,0,0-6.243A5.284,5.284,0,0,1,7.149,7.023,5.283,5.283,0,0,0,12.554,3.9a5.284,5.284,0,0,1,9.67,0" transform="translate(0.748 0.438)" fill="#fff"/>
            <path id="패스_20897" data-name="패스 20897" d="M22.224,3.9h0a5.284,5.284,0,0,0,5.405,3.121A5.284,5.284,0,0,1,32.464,15.4a5.289,5.289,0,0,0,0,6.243,5.284,5.284,0,0,1-4.835,8.374,5.282,5.282,0,0,0-5.405,3.121,5.284,5.284,0,0,1-9.67,0,5.281,5.281,0,0,0-5.405-3.121A5.284,5.284,0,0,1,2.314,21.64a5.284,5.284,0,0,0,0-6.243A5.284,5.284,0,0,1,7.149,7.023,5.283,5.283,0,0,0,12.554,3.9,5.284,5.284,0,0,1,22.224,3.9Z" transform="translate(0.748 0.438)" fill="none" stroke="#000" stroke-linejoin="bevel" stroke-width="1.5"/>
          </g>
        </g>
      </g>
      <path id="패스_20903" data-name="패스 20903" d="M-4.788.234c2.484,0,4.14-1.494,4.14-3.42A3.85,3.85,0,0,0-2.88-6.642v-.09A4.327,4.327,0,0,0-1.116-9.918a3.337,3.337,0,0,0-3.618-3.474,3.347,3.347,0,0,0-3.618,3.348A3.668,3.668,0,0,0-6.57-7v.09A4.226,4.226,0,0,0-9-3.276C-9-1.242-7.218.234-4.788.234Zm.9-7.4c-1.548-.612-2.97-1.3-2.97-2.88A2.028,2.028,0,0,1-4.77-12.186,2.2,2.2,0,0,1-2.52-9.828,3.54,3.54,0,0,1-3.888-7.164ZM-4.752-.99A2.53,2.53,0,0,1-7.506-3.42a3.587,3.587,0,0,1,1.8-2.988c1.872.756,3.492,1.422,3.492,3.186A2.286,2.286,0,0,1-4.752-.99ZM4.572.234c2.34,0,4.23-1.4,4.23-3.762A3.393,3.393,0,0,0,5.994-6.876v-.072a3.289,3.289,0,0,0,2.358-3.186c0-2.124-1.62-3.312-3.834-3.312a5.282,5.282,0,0,0-3.69,1.584l.882,1.044a4.117,4.117,0,0,1,2.736-1.314,2.061,2.061,0,0,1,2.232,2.124c0,1.422-.936,2.52-3.654,2.52v1.26c3.042,0,4.1,1.062,4.1,2.646A2.429,2.429,0,0,1,4.446-1.134,4.362,4.362,0,0,1,1.17-2.646L.342-1.566A5.462,5.462,0,0,0,4.572.234Z" transform="translate(822 1006)" fill="#e7eefe"/>
    </g>
  </g>
</svg>
